<svg width="155" height="57" viewBox="0 0 155 57" fill="none" xmlns="http://www.w3.org/2000/svg">
<path d="M154.5 28.5C154.5 32.2368 152.442 35.8595 148.582 39.2162C144.722 42.5717 139.108 45.6164 132.128 48.1833C118.172 53.3156 98.8579 56.5 77.5 56.5C56.1421 56.5 36.8282 53.3156 22.8718 48.1833C15.8916 45.6164 10.2779 42.5717 6.4184 39.2162C2.5577 35.8595 0.5 32.2368 0.5 28.5C0.5 24.7632 2.5577 21.1405 6.4184 17.7838C10.2779 14.4283 15.8916 11.3836 22.8718 8.81673C36.8282 3.68437 56.1421 0.5 77.5 0.5C98.8579 0.5 118.172 3.68437 132.128 8.81673C139.108 11.3836 144.722 14.4283 148.582 17.7838C152.442 21.1405 154.5 24.7632 154.5 28.5Z" fill="#EACCCE" stroke="#DF4F58"/>
</svg>
