<svg width="205" height="52" viewBox="0 0 205 52" fill="none" xmlns="http://www.w3.org/2000/svg">
<path d="M12.6 35.648C10.536 35.648 8.736 35.048 7.2 33.848C5.688 32.624 4.524 30.98 3.708 28.916C2.916 26.828 2.52 24.512 2.52 21.968C2.52 19.544 2.928 17.324 3.744 15.308C4.56 13.292 5.724 11.696 7.236 10.52C8.748 9.32 10.512 8.72 12.528 8.72C13.584 8.72 14.58 8.96 15.516 9.44C16.452 9.92 17.22 10.436 17.82 10.988C18.396 11.516 18.78 11.78 18.972 11.78C19.164 11.78 19.296 11.72 19.368 11.6C19.464 11.48 19.56 11.288 19.656 11.024L20.34 9.008H21.24L21.384 20.168H20.376C19.848 17.888 19.164 15.98 18.324 14.444C17.484 12.884 16.56 11.732 15.552 10.988C14.568 10.244 13.584 9.872 12.6 9.872C10.944 9.872 9.66 10.376 8.748 11.384C7.836 12.368 7.2 13.748 6.84 15.524C6.504 17.3 6.336 19.52 6.336 22.184C6.336 24.848 6.504 27.068 6.84 28.844C7.2 30.62 7.836 32.012 8.748 33.02C9.66 34.004 10.944 34.496 12.6 34.496C13.488 34.496 14.34 34.184 15.156 33.56C15.972 32.912 16.632 32.096 17.136 31.112C17.664 30.128 17.928 29.156 17.928 28.196V24.956C17.928 24.62 17.844 24.38 17.676 24.236C17.532 24.068 17.292 23.984 16.956 23.984H12.96V22.832H24.84V23.984H22.212C21.876 23.984 21.624 24.068 21.456 24.236C21.312 24.38 21.24 24.62 21.24 24.956V35.468H20.088V32.192C20.088 31.784 20.04 31.484 19.944 31.292C19.848 31.076 19.692 30.968 19.476 30.968C19.212 30.968 18.984 31.064 18.792 31.256C18.6 31.448 18.408 31.712 18.216 32.048C17.664 32.936 16.884 33.764 15.876 34.532C14.868 35.276 13.776 35.648 12.6 35.648ZM30.6622 14.12C30.1342 14.12 29.6902 13.94 29.3302 13.58C28.9702 13.22 28.7902 12.776 28.7902 12.248C28.7902 11.696 28.9702 11.252 29.3302 10.916C29.6902 10.556 30.1342 10.376 30.6622 10.376C31.2142 10.376 31.6582 10.556 31.9942 10.916C32.3542 11.252 32.5342 11.696 32.5342 12.248C32.5342 12.776 32.3542 13.22 31.9942 13.58C31.6582 13.94 31.2142 14.12 30.6622 14.12ZM27.2782 34.136H28.7902C29.0782 34.136 29.2822 34.076 29.4022 33.956C29.5222 33.836 29.5822 33.632 29.5822 33.344V20.24C29.5822 19.952 29.5222 19.748 29.4022 19.628C29.2822 19.508 29.0782 19.448 28.7902 19.448H27.2782V18.584H32.1742V33.344C32.1742 33.632 32.2342 33.836 32.3542 33.956C32.4742 34.076 32.6782 34.136 32.9662 34.136H34.4782V35H27.2782V34.136ZM36.6213 34.136H38.4933C38.7813 34.136 38.9853 34.076 39.1053 33.956C39.2253 33.836 39.2853 33.632 39.2853 33.344V19.592H36.6213V18.584H39.2853V16.1C39.2853 14.492 39.5493 13.16 40.0773 12.104C40.6293 11.048 41.3253 10.28 42.1653 9.8C43.0053 9.32 43.8813 9.08 44.7933 9.08C45.8253 9.08 46.7013 9.404 47.4213 10.052C48.1413 10.676 48.5013 11.576 48.5013 12.752C48.5013 13.376 48.3453 13.868 48.0333 14.228C47.7453 14.588 47.3373 14.768 46.8093 14.768C46.3773 14.768 46.0173 14.636 45.7293 14.372C45.4653 14.084 45.3333 13.712 45.3333 13.256C45.3333 13.016 45.3933 12.776 45.5133 12.536C45.6333 12.296 45.7893 12.104 45.9813 11.96C46.3653 11.744 46.5573 11.456 46.5573 11.096C46.5573 10.688 46.3653 10.4 45.9813 10.232C45.6213 10.04 45.2013 9.944 44.7213 9.944C43.9293 9.944 43.2573 10.328 42.7053 11.096C42.1533 11.864 41.8773 13.196 41.8773 15.092V18.584H45.2613V19.592H41.8773V33.344C41.8773 33.632 41.9373 33.836 42.0573 33.956C42.1773 34.076 42.3813 34.136 42.6693 34.136H45.2613V35H36.6213V34.136ZM54.9121 35.432C53.8321 35.432 52.9321 35.048 52.2121 34.28C51.5161 33.512 51.1681 32.468 51.1681 31.148V19.592H48.5041V18.584H49.2961C50.3761 18.584 51.2161 18.008 51.8161 16.856C52.4401 15.68 52.7521 14.384 52.7521 12.968V11.672H53.7601V18.584H58.2241V19.592H53.7601V31.328C53.7601 32.048 53.9041 32.648 54.1921 33.128C54.4801 33.608 54.9721 33.848 55.6681 33.848C57.3721 33.848 58.2241 32.408 58.2241 29.528H58.8721C58.8721 31.136 58.6321 32.528 58.1521 33.704C57.6961 34.856 56.6161 35.432 54.9121 35.432ZM72.4039 33.848H74.9959C75.6439 33.848 75.9679 33.524 75.9679 32.876V11.492C75.9679 11.156 75.8839 10.916 75.7159 10.772C75.5719 10.604 75.3319 10.52 74.9959 10.52H72.4039V9.368H82.8439V10.52H80.2519C79.9159 10.52 79.6639 10.604 79.4959 10.772C79.3519 10.916 79.2799 11.156 79.2799 11.492V32.876C79.2799 33.524 79.6039 33.848 80.2519 33.848H82.8439V35H72.4039V33.848ZM92.4038 35.432C91.2758 35.432 90.2198 35.06 89.2358 34.316C88.2758 33.548 87.5078 32.504 86.9318 31.184C86.3558 29.864 86.0678 28.4 86.0678 26.792C86.0678 25.184 86.3558 23.72 86.9318 22.4C87.5078 21.08 88.2758 20.048 89.2358 19.304C90.2198 18.536 91.2758 18.152 92.4038 18.152C93.3398 18.152 94.1798 18.464 94.9238 19.088C95.6678 19.688 96.2198 20.42 96.5798 21.284L96.7238 21.248V11.024C96.7238 10.736 96.6638 10.532 96.5438 10.412C96.4238 10.292 96.2198 10.232 95.9318 10.232H93.3398V9.368H99.3158V33.344C99.3158 33.632 99.3758 33.836 99.4958 33.956C99.6158 34.076 99.8198 34.136 100.108 34.136H101.98V35H96.7238V32.336L96.5798 32.3C96.1238 33.26 95.5358 34.028 94.8158 34.604C94.1198 35.156 93.3158 35.432 92.4038 35.432ZM92.7998 34.424C93.5198 34.424 94.1798 34.16 94.7798 33.632C95.3798 33.104 95.8478 32.384 96.1838 31.472C96.5438 30.536 96.7238 29.528 96.7238 28.448V25.136C96.7238 24.056 96.5438 23.06 96.1838 22.148C95.8478 21.212 95.3798 20.48 94.7798 19.952C94.1798 19.424 93.5198 19.16 92.7998 19.16C91.6238 19.16 90.7358 19.82 90.1358 21.14C89.5358 22.46 89.2358 24.344 89.2358 26.792C89.2358 29.24 89.5358 31.124 90.1358 32.444C90.7358 33.764 91.6238 34.424 92.7998 34.424ZM112.292 35.432C110.06 35.432 108.26 34.676 106.892 33.164C105.548 31.652 104.876 29.552 104.876 26.864C104.876 25.328 105.176 23.9 105.776 22.58C106.376 21.236 107.204 20.168 108.26 19.376C109.34 18.56 110.54 18.152 111.86 18.152C113.324 18.152 114.524 18.548 115.46 19.34C116.396 20.132 117.068 21.14 117.476 22.364C117.908 23.564 118.124 24.8 118.124 26.072C118.124 26.336 118.04 26.516 117.872 26.612C117.704 26.684 117.416 26.72 117.008 26.72H108.044C108.044 29.12 108.38 31.028 109.052 32.444C109.748 33.86 110.876 34.568 112.436 34.568C113.54 34.568 114.572 34.148 115.532 33.308C116.516 32.468 117.14 31.16 117.404 29.384H118.268C118.124 31.136 117.512 32.588 116.432 33.74C115.376 34.868 113.996 35.432 112.292 35.432ZM115.028 25.856C115.028 23.936 114.776 22.316 114.272 20.996C113.768 19.676 112.94 19.016 111.788 19.016C110.564 19.016 109.628 19.688 108.98 21.032C108.356 22.352 108.044 23.96 108.044 25.856H115.028ZM126.043 35.432C124.771 35.432 123.667 35.12 122.731 34.496C121.819 33.872 121.363 32.768 121.363 31.184C121.363 29.96 121.675 29 122.299 28.304C122.923 27.608 123.643 27.116 124.459 26.828C125.299 26.516 126.307 26.252 127.483 26.036L130.795 25.424V22.364C130.795 20.132 129.679 19.016 127.447 19.016C126.631 19.016 125.887 19.232 125.215 19.664C124.543 20.072 124.207 20.54 124.207 21.068C124.207 21.308 124.243 21.488 124.315 21.608C124.363 21.68 124.435 21.752 124.531 21.824C124.651 21.896 124.759 21.944 124.855 21.968C125.287 22.088 125.611 22.256 125.827 22.472C126.067 22.688 126.187 22.988 126.187 23.372C126.187 23.876 126.031 24.236 125.719 24.452C125.431 24.668 125.059 24.776 124.603 24.776C124.075 24.776 123.595 24.572 123.163 24.164C122.731 23.756 122.515 23.168 122.515 22.4C122.515 21.512 122.755 20.744 123.235 20.096C123.739 19.448 124.375 18.968 125.143 18.656C125.935 18.32 126.739 18.152 127.555 18.152C129.139 18.152 130.507 18.572 131.659 19.412C132.811 20.228 133.387 21.512 133.387 23.264V32.12C133.387 33.32 133.759 33.92 134.503 33.92C135.103 33.92 135.535 33.572 135.799 32.876C136.063 32.18 136.195 31.328 136.195 30.32H136.843C136.843 31.76 136.627 32.972 136.195 33.956C135.787 34.94 135.043 35.432 133.963 35.432C132.931 35.432 132.151 35.132 131.623 34.532C131.119 33.908 130.843 33.056 130.795 31.976L130.615 31.904C130.255 32.744 129.667 33.548 128.851 34.316C128.059 35.06 127.123 35.432 126.043 35.432ZM126.619 34.136C127.699 34.136 128.539 33.716 129.139 32.876C129.763 32.012 130.315 30.92 130.795 29.6V26.18L127.663 26.864C126.511 27.104 125.671 27.584 125.143 28.304C124.639 29 124.387 29.996 124.387 31.292C124.387 32.396 124.615 33.152 125.071 33.56C125.527 33.944 126.043 34.136 126.619 34.136ZM139.656 28.304H140.304L141.636 31.148C142.932 33.428 144.612 34.568 146.676 34.568C147.78 34.568 148.596 34.304 149.124 33.776C149.676 33.224 149.952 32.48 149.952 31.544C149.952 30.992 149.736 30.5 149.304 30.068C148.896 29.612 148.344 29.252 147.648 28.988L143.544 27.332C142.248 26.804 141.228 26.168 140.484 25.424C139.74 24.68 139.368 23.732 139.368 22.58C139.368 21.116 139.824 20.012 140.736 19.268C141.648 18.524 142.8 18.152 144.192 18.152C144.888 18.152 145.536 18.272 146.136 18.512C146.76 18.728 147.276 18.992 147.684 19.304C148.212 19.688 148.608 19.88 148.872 19.88C149.184 19.88 149.376 19.664 149.448 19.232L149.52 18.512H150.168V23.984H149.52L149.016 22.724C148.464 21.356 147.732 20.396 146.82 19.844C145.932 19.292 145.044 19.016 144.156 19.016C143.268 19.016 142.536 19.244 141.96 19.7C141.384 20.132 141.096 20.744 141.096 21.536C141.096 22.232 141.372 22.808 141.924 23.264C142.5 23.696 143.28 24.116 144.264 24.524L148.152 26.144C149.304 26.624 150.168 27.212 150.744 27.908C151.32 28.58 151.608 29.528 151.608 30.752C151.608 32.36 151.152 33.548 150.24 34.316C149.328 35.06 148.128 35.432 146.64 35.432C145.752 35.432 145.032 35.312 144.48 35.072C143.928 34.832 143.388 34.508 142.86 34.1C142.644 33.932 142.428 33.788 142.212 33.668C141.996 33.548 141.804 33.488 141.636 33.488C141.06 33.488 140.664 33.896 140.448 34.712L140.304 35.432H139.656V28.304Z" fill="black"/>
<path d="M185.229 13.727H159.273V18.5511H185.229V13.727Z" fill="#FA6F00"/>
<path d="M185.23 19.1101H159.273C159.125 19.1101 158.982 19.0513 158.878 18.9465C158.773 18.8418 158.714 18.6997 158.714 18.5515V13.727C158.714 13.5789 158.773 13.4368 158.878 13.332C158.982 13.2273 159.125 13.1684 159.273 13.1684H185.23C185.378 13.1684 185.52 13.2273 185.625 13.332C185.73 13.4368 185.789 13.5789 185.789 13.727V18.5515C185.789 18.6997 185.73 18.8418 185.625 18.9465C185.52 19.0513 185.378 19.1101 185.23 19.1101ZM159.831 17.9929H184.672V14.2856H159.831V17.9929Z" fill="black"/>
<path d="M178.609 37.2373H161.764V18.5514H182.738V21.1601" fill="#FA9800"/>
<path d="M178.609 37.7954H161.765C161.617 37.7954 161.475 37.7366 161.37 37.6318C161.265 37.5271 161.206 37.385 161.206 37.2368V18.5514C161.206 18.4033 161.265 18.2612 161.37 18.1564C161.475 18.0517 161.617 17.9928 161.765 17.9928H182.738C182.886 17.9928 183.028 18.0517 183.133 18.1564C183.238 18.2612 183.297 18.4033 183.297 18.5514V21.1601C183.297 21.3082 183.238 21.4503 183.133 21.555C183.028 21.6598 182.886 21.7187 182.738 21.7187C182.59 21.7187 182.448 21.6598 182.343 21.555C182.238 21.4503 182.179 21.3082 182.179 21.1601V19.11H162.322V36.6782H178.607C178.755 36.6782 178.898 36.7371 179.002 36.8418C179.107 36.9466 179.166 37.0887 179.166 37.2368C179.166 37.385 179.107 37.5271 179.002 37.6318C178.898 37.7366 178.755 37.7954 178.607 37.7954H178.609Z" fill="black"/>
<path d="M175.19 13.727H169.312V18.5511H175.19V13.727Z" fill="#FE5B4A"/>
<path d="M175.19 19.1101H169.312C169.163 19.1101 169.021 19.0513 168.917 18.9465C168.812 18.8418 168.753 18.6997 168.753 18.5515V13.727C168.753 13.5789 168.812 13.4368 168.917 13.332C169.021 13.2273 169.163 13.1684 169.312 13.1684H175.19C175.338 13.1684 175.48 13.2273 175.585 13.332C175.689 13.4368 175.748 13.5789 175.748 13.727V18.5515C175.748 18.6997 175.689 18.8418 175.585 18.9465C175.48 19.0513 175.338 19.1101 175.19 19.1101ZM169.87 17.9929H174.631V14.2856H169.87V17.9929Z" fill="black"/>
<path d="M174.354 19.0232H170.147V37.2372H174.354V19.0232Z" fill="#FE5B4A"/>
<path d="M174.354 37.7954H170.148C170 37.7954 169.858 37.7366 169.753 37.6318C169.649 37.5271 169.59 37.385 169.59 37.2368V19.0232C169.59 18.875 169.649 18.733 169.753 18.6282C169.858 18.5235 170 18.4646 170.148 18.4646H174.355C174.503 18.4646 174.645 18.5235 174.75 18.6282C174.855 18.733 174.914 18.875 174.914 19.0232V37.2368C174.914 37.3103 174.899 37.383 174.871 37.4508C174.843 37.5186 174.802 37.5802 174.75 37.6321C174.698 37.684 174.636 37.7251 174.568 37.7532C174.5 37.7812 174.428 37.7955 174.354 37.7954ZM170.706 36.6782H173.796V19.5818H170.707L170.706 36.6782Z" fill="black"/>
<path d="M172.028 13.7275L177.364 8.39163L180.628 11.656L178.557 13.7275" fill="#FE5B4A"/>
<path d="M172.028 14.2856C171.918 14.2855 171.81 14.2527 171.718 14.1914C171.626 14.13 171.555 14.0427 171.512 13.9407C171.47 13.8387 171.459 13.7264 171.481 13.618C171.502 13.5097 171.555 13.4102 171.633 13.3321L176.969 7.99664C177.073 7.89194 177.216 7.83313 177.364 7.83313C177.512 7.83313 177.654 7.89194 177.759 7.99664L181.024 11.2623C181.129 11.367 181.188 11.5091 181.188 11.6572C181.188 11.8053 181.129 11.9473 181.024 12.052L178.953 14.1236C178.848 14.2283 178.706 14.2871 178.558 14.2871C178.409 14.287 178.267 14.2281 178.163 14.1234C178.058 14.0186 177.999 13.8765 177.999 13.7283C177.999 13.5802 178.058 13.4381 178.163 13.3334L179.839 11.6576L177.364 9.18344L172.423 14.1249C172.371 14.1763 172.309 14.217 172.242 14.2446C172.174 14.2721 172.101 14.2861 172.028 14.2856Z" fill="black"/>
<path d="M172.028 13.7275L166.693 8.39163L163.428 11.656L165.5 13.7275" fill="#FE5B4A"/>
<path d="M172.028 14.2856C171.954 14.2858 171.882 14.2714 171.814 14.2434C171.746 14.2154 171.685 14.1742 171.633 14.1223L166.691 9.1809L164.218 11.6559L165.894 13.3317C165.946 13.3836 165.987 13.4452 166.015 13.513C166.043 13.5807 166.058 13.6534 166.058 13.7268C166.058 13.8002 166.043 13.8728 166.015 13.9406C165.987 14.0084 165.946 14.07 165.894 14.1219C165.842 14.1738 165.78 14.2149 165.713 14.243C165.645 14.2711 165.572 14.2855 165.499 14.2855C165.425 14.2855 165.353 14.2711 165.285 14.243C165.217 14.2149 165.156 14.1738 165.104 14.1219L163.033 12.0504C162.928 11.9456 162.869 11.8036 162.869 11.6555C162.869 11.5074 162.928 11.3653 163.033 11.2606L166.298 7.99496C166.403 7.89026 166.545 7.83145 166.693 7.83145C166.841 7.83145 166.983 7.89026 167.088 7.99496L172.423 13.3321C172.501 13.4102 172.554 13.5097 172.575 13.6181C172.597 13.7264 172.586 13.8387 172.544 13.9407C172.501 14.0428 172.43 14.13 172.338 14.1914C172.246 14.2528 172.138 14.2855 172.028 14.2856Z" fill="black"/>
<path opacity="0.6" d="M182.737 32.6095V19.0232H162.123L182.737 32.6095Z" fill="#B73F39"/>
<path d="M202.727 24.4468H176.77V28.3784H202.727V24.4468Z" fill="#469BB5"/>
<path d="M202.726 28.937H176.77C176.622 28.937 176.48 28.8781 176.375 28.7734C176.271 28.6686 176.212 28.5265 176.212 28.3784V24.4468C176.212 24.2986 176.271 24.1565 176.375 24.0518C176.48 23.947 176.622 23.8882 176.77 23.8882H202.726C202.874 23.8882 203.016 23.947 203.121 24.0518C203.226 24.1565 203.285 24.2986 203.285 24.4468V28.3784C203.285 28.5265 203.226 28.6686 203.121 28.7734C203.016 28.8781 202.874 28.937 202.726 28.937ZM177.329 27.8198H202.168V25.0054H177.329V27.8198Z" fill="black"/>
<path d="M200.235 28.3784H179.262V43.6079H200.235V28.3784Z" fill="#4DBAB5"/>
<path d="M200.235 44.1669H179.262C179.113 44.1669 178.971 44.108 178.867 44.0033C178.762 43.8985 178.703 43.7564 178.703 43.6083V28.3784C178.703 28.2303 178.762 28.0882 178.867 27.9834C178.971 27.8787 179.113 27.8198 179.262 27.8198H200.235C200.384 27.8198 200.526 27.8787 200.63 27.9834C200.735 28.0882 200.794 28.2303 200.794 28.3784V43.6083C200.794 43.7564 200.735 43.8985 200.63 44.0033C200.526 44.108 200.384 44.1669 200.235 44.1669ZM179.82 43.0497H199.677V28.937H179.82V43.0497Z" fill="black"/>
<path d="M192.687 24.4468H186.809V28.3784H192.687V24.4468Z" fill="#4161B5"/>
<path d="M192.687 28.937H186.809C186.661 28.937 186.519 28.8781 186.414 28.7734C186.31 28.6686 186.251 28.5265 186.251 28.3784V24.4468C186.251 24.2986 186.31 24.1565 186.414 24.0518C186.519 23.947 186.661 23.8882 186.809 23.8882H192.687C192.836 23.8882 192.978 23.947 193.082 24.0518C193.187 24.1565 193.246 24.2986 193.246 24.4468V28.3784C193.246 28.5265 193.187 28.6686 193.082 28.7734C192.978 28.8781 192.836 28.937 192.687 28.937ZM187.368 27.8198H192.129V25.0054H187.368V27.8198Z" fill="black"/>
<path d="M191.852 28.763H187.646V43.6079H191.852V28.763Z" fill="#4161B5"/>
<path d="M191.852 44.1669H187.646C187.498 44.1669 187.356 44.108 187.251 44.0033C187.146 43.8985 187.087 43.7564 187.087 43.6083V28.763C187.087 28.6149 187.146 28.4728 187.251 28.368C187.356 28.2633 187.498 28.2044 187.646 28.2044H191.852C192.001 28.2044 192.143 28.2633 192.247 28.368C192.352 28.4728 192.411 28.6149 192.411 28.763V43.6083C192.411 43.7564 192.352 43.8985 192.247 44.0033C192.143 44.108 192.001 44.1669 191.852 44.1669ZM188.204 43.0497H191.294V29.3216H188.204V43.0497Z" fill="black"/>
<path d="M189.526 24.4467L194.861 20.0983L198.125 22.7585L196.054 24.4467" fill="#4161B5"/>
<path d="M196.055 25.0055C195.94 25.0056 195.827 24.9699 195.733 24.9035C195.639 24.837 195.567 24.743 195.529 24.6343C195.49 24.5256 195.486 24.4076 195.517 24.2965C195.548 24.1854 195.613 24.0866 195.702 24.0138L197.242 22.7587L194.862 20.8203L189.878 24.8809C189.821 24.9292 189.755 24.9658 189.684 24.9884C189.613 25.011 189.539 25.0191 189.465 25.0124C189.39 25.0058 189.318 24.9843 189.253 24.9494C189.187 24.9144 189.129 24.8667 189.082 24.809C189.035 24.7513 189 24.6848 188.979 24.6133C188.958 24.5419 188.951 24.467 188.96 24.393C188.968 24.3191 188.991 24.2475 189.028 24.1826C189.064 24.1177 189.113 24.0607 189.172 24.0151L194.507 19.6666C194.607 19.5855 194.732 19.5411 194.86 19.5411C194.989 19.5411 195.113 19.5855 195.213 19.6666L198.479 22.3268C198.543 22.3792 198.595 22.4452 198.63 22.5202C198.666 22.5951 198.685 22.677 198.685 22.7599C198.685 22.8429 198.666 22.9248 198.63 22.9997C198.595 23.0746 198.543 23.1407 198.479 23.1931L196.407 24.8809C196.308 24.9618 196.183 25.0059 196.055 25.0055Z" fill="black"/>
<path d="M189.526 24.4467L184.19 20.0983L180.926 22.7585L182.997 24.4467" fill="#4161B5"/>
<path d="M182.996 25.0055C182.867 25.0054 182.743 24.9609 182.643 24.8796L180.572 23.1918C180.508 23.1394 180.456 23.0734 180.42 22.9985C180.384 22.9235 180.366 22.8416 180.366 22.7587C180.366 22.6757 180.384 22.5938 180.42 22.5189C180.456 22.444 180.508 22.3779 180.572 22.3256L183.837 19.6654C183.937 19.5842 184.062 19.5399 184.19 19.5399C184.319 19.5399 184.443 19.5842 184.543 19.6654L189.878 24.0138C189.937 24.0595 189.986 24.1165 190.023 24.1814C190.059 24.2463 190.082 24.3178 190.091 24.3918C190.099 24.4657 190.093 24.5406 190.072 24.6121C190.051 24.6835 190.016 24.75 189.969 24.8077C189.922 24.8655 189.864 24.9132 189.798 24.9481C189.732 24.9831 189.66 25.0045 189.586 25.0112C189.512 25.0179 189.437 25.0097 189.366 24.9871C189.295 24.9645 189.229 24.928 189.173 24.8796L184.189 20.8191L181.808 22.7587L183.348 24.0138C183.438 24.0866 183.503 24.1854 183.534 24.2964C183.565 24.4075 183.561 24.5255 183.522 24.6341C183.483 24.7428 183.412 24.8368 183.318 24.9033C183.224 24.9698 183.111 25.0055 182.996 25.0055Z" fill="black"/>
<path opacity="0.6" d="M199.833 42.3493V28.763H179.219L199.833 42.3493Z" fill="#124379"/>
<path opacity="0.6" d="M202.455 28.0013H177.219V25.5263L185.19 26.3814L202.455 28.0013Z" fill="#124379"/>
<path d="M168.893 13.0206C168.836 13.0207 168.78 13.0097 168.728 12.9881C168.676 12.9665 168.629 12.9347 168.589 12.8947L166.14 10.4455C166.098 10.4058 166.066 10.3584 166.043 10.306C166.021 10.2536 166.009 10.1972 166.008 10.1401C166.008 10.0831 166.019 10.0265 166.04 9.97368C166.062 9.92087 166.094 9.87289 166.134 9.83255C166.175 9.7922 166.223 9.7603 166.275 9.73869C166.328 9.71709 166.385 9.70622 166.442 9.70671C166.499 9.70721 166.555 9.71906 166.608 9.74158C166.66 9.7641 166.707 9.79683 166.747 9.83787L169.196 12.2871C169.256 12.3472 169.297 12.4237 169.314 12.5071C169.33 12.5904 169.322 12.6768 169.289 12.7553C169.257 12.8338 169.202 12.9009 169.131 12.9481C169.061 12.9953 168.977 13.0206 168.893 13.0206Z" fill="#FFEAE8"/>
<path d="M178.837 12.1015C178.723 12.1015 178.613 12.0562 178.533 11.9756L177.001 10.4442C176.961 10.4043 176.93 10.3569 176.908 10.3047C176.886 10.2526 176.875 10.1967 176.875 10.1403C176.875 10.0838 176.886 10.0279 176.908 9.9758C176.93 9.92366 176.961 9.8763 177.001 9.8364C177.041 9.79651 177.089 9.76487 177.141 9.74329C177.193 9.72171 177.249 9.71061 177.305 9.71063C177.362 9.71065 177.418 9.72179 177.47 9.74341C177.522 9.76502 177.569 9.7967 177.609 9.83662L179.14 11.3672C179.201 11.4273 179.241 11.5038 179.258 11.5872C179.275 11.6705 179.266 11.7569 179.234 11.8354C179.201 11.9139 179.146 11.981 179.075 12.0282C179.005 12.0754 178.922 12.1006 178.837 12.1006V12.1015Z" fill="#FFEAE8"/>
<path opacity="0.6" d="M184.932 18.0991H159.696V15.6241L167.667 16.4791L184.932 18.0991Z" fill="#B73F39"/>
<path d="M185.66 23.4677C185.563 23.4679 185.469 23.4352 185.393 23.3749L183.986 22.2577C183.9 22.186 183.845 22.0833 183.833 21.9716C183.821 21.8599 183.854 21.748 183.924 21.66C183.993 21.572 184.095 21.5148 184.206 21.5007C184.318 21.4865 184.43 21.5166 184.52 21.5844L185.927 22.7016C185.997 22.757 186.048 22.8328 186.073 22.9185C186.098 23.0041 186.095 23.0954 186.066 23.1795C186.037 23.2637 185.982 23.3367 185.909 23.3883C185.836 23.44 185.749 23.4677 185.66 23.4677Z" fill="#8ECFB5"/>
<path d="M195.957 23.4677C195.86 23.4679 195.766 23.4352 195.69 23.3749L194.283 22.2577C194.194 22.1868 194.136 22.0834 194.123 21.9702C194.11 21.857 194.142 21.7432 194.213 21.654C194.284 21.5647 194.388 21.5072 194.501 21.4941C194.614 21.4811 194.728 21.5135 194.817 21.5843L196.224 22.7015C196.294 22.757 196.345 22.8328 196.37 22.9184C196.394 23.0041 196.392 23.0953 196.363 23.1795C196.333 23.2637 196.278 23.3367 196.206 23.3883C196.133 23.4399 196.046 23.4677 195.957 23.4677Z" fill="#8ECFB5"/>
<path d="M185.23 19.1101H159.273C159.125 19.1101 158.982 19.0513 158.878 18.9465C158.773 18.8418 158.714 18.6997 158.714 18.5515V13.727C158.714 13.5789 158.773 13.4368 158.878 13.332C158.982 13.2273 159.125 13.1684 159.273 13.1684H185.23C185.378 13.1684 185.52 13.2273 185.625 13.332C185.73 13.4368 185.789 13.5789 185.789 13.727V18.5515C185.789 18.6997 185.73 18.8418 185.625 18.9465C185.52 19.0513 185.378 19.1101 185.23 19.1101ZM159.831 17.9929H184.672V14.2856H159.831V17.9929Z" fill="#690A3F"/>
<path d="M178.609 37.7954H161.765C161.617 37.7954 161.475 37.7366 161.37 37.6318C161.265 37.5271 161.206 37.385 161.206 37.2368V18.5514C161.206 18.4033 161.265 18.2612 161.37 18.1564C161.475 18.0517 161.617 17.9928 161.765 17.9928H182.738C182.886 17.9928 183.028 18.0517 183.133 18.1564C183.238 18.2612 183.297 18.4033 183.297 18.5514V21.1601C183.297 21.3082 183.238 21.4503 183.133 21.555C183.028 21.6598 182.886 21.7187 182.738 21.7187C182.59 21.7187 182.448 21.6598 182.343 21.555C182.238 21.4503 182.179 21.3082 182.179 21.1601V19.11H162.322V36.6782H178.607C178.755 36.6782 178.898 36.7371 179.002 36.8418C179.107 36.9466 179.166 37.0887 179.166 37.2368C179.166 37.385 179.107 37.5271 179.002 37.6318C178.898 37.7366 178.755 37.7954 178.607 37.7954H178.609Z" fill="#690A3F"/>
<path d="M175.19 19.1101H169.312C169.163 19.1101 169.021 19.0513 168.917 18.9465C168.812 18.8418 168.753 18.6997 168.753 18.5515V13.727C168.753 13.5789 168.812 13.4368 168.917 13.332C169.021 13.2273 169.163 13.1684 169.312 13.1684H175.19C175.338 13.1684 175.48 13.2273 175.585 13.332C175.689 13.4368 175.748 13.5789 175.748 13.727V18.5515C175.748 18.6997 175.689 18.8418 175.585 18.9465C175.48 19.0513 175.338 19.1101 175.19 19.1101ZM169.87 17.9929H174.631V14.2856H169.87V17.9929Z" fill="#690A3F"/>
<path d="M174.354 37.7954H170.148C170 37.7954 169.858 37.7366 169.753 37.6318C169.649 37.5271 169.59 37.385 169.59 37.2368V19.0232C169.59 18.875 169.649 18.733 169.753 18.6282C169.858 18.5235 170 18.4646 170.148 18.4646H174.355C174.503 18.4646 174.645 18.5235 174.75 18.6282C174.855 18.733 174.914 18.875 174.914 19.0232V37.2368C174.914 37.3103 174.899 37.383 174.871 37.4508C174.843 37.5186 174.802 37.5802 174.75 37.6321C174.698 37.684 174.636 37.7251 174.568 37.7532C174.5 37.7812 174.428 37.7955 174.354 37.7954ZM170.706 36.6782H173.796V19.5818H170.707L170.706 36.6782Z" fill="#690A3F"/>
<path d="M172.028 14.2856C171.918 14.2855 171.81 14.2527 171.718 14.1914C171.626 14.13 171.555 14.0427 171.512 13.9407C171.47 13.8387 171.459 13.7264 171.481 13.618C171.502 13.5097 171.555 13.4102 171.633 13.3321L176.969 7.99664C177.073 7.89194 177.216 7.83313 177.364 7.83313C177.512 7.83313 177.654 7.89194 177.759 7.99664L181.024 11.2623C181.129 11.367 181.188 11.5091 181.188 11.6572C181.188 11.8053 181.129 11.9473 181.024 12.052L178.953 14.1236C178.848 14.2283 178.706 14.2871 178.558 14.2871C178.409 14.287 178.267 14.2281 178.163 14.1234C178.058 14.0186 177.999 13.8765 177.999 13.7283C177.999 13.5802 178.058 13.4381 178.163 13.3334L179.839 11.6576L177.364 9.18344L172.423 14.1249C172.371 14.1763 172.309 14.217 172.242 14.2446C172.174 14.2721 172.101 14.2861 172.028 14.2856Z" fill="#690A3F"/>
<path d="M172.028 14.2856C171.954 14.2858 171.882 14.2714 171.814 14.2434C171.746 14.2154 171.685 14.1742 171.633 14.1223L166.691 9.1809L164.218 11.6559L165.894 13.3317C165.946 13.3836 165.987 13.4452 166.015 13.513C166.043 13.5807 166.058 13.6534 166.058 13.7268C166.058 13.8002 166.043 13.8728 166.015 13.9406C165.987 14.0084 165.946 14.07 165.894 14.1219C165.842 14.1738 165.78 14.2149 165.713 14.243C165.645 14.2711 165.572 14.2855 165.499 14.2855C165.425 14.2855 165.353 14.2711 165.285 14.243C165.217 14.2149 165.156 14.1738 165.104 14.1219L163.033 12.0504C162.928 11.9456 162.869 11.8036 162.869 11.6555C162.869 11.5074 162.928 11.3653 163.033 11.2606L166.298 7.99496C166.403 7.89026 166.545 7.83145 166.693 7.83145C166.841 7.83145 166.983 7.89026 167.088 7.99496L172.423 13.3321C172.501 13.4102 172.554 13.5097 172.575 13.6181C172.597 13.7264 172.586 13.8387 172.544 13.9407C172.501 14.0428 172.43 14.13 172.338 14.1914C172.246 14.2528 172.138 14.2855 172.028 14.2856Z" fill="#690A3F"/>
<path d="M202.726 28.937H176.77C176.622 28.937 176.48 28.8781 176.375 28.7734C176.271 28.6686 176.212 28.5265 176.212 28.3784V24.4468C176.212 24.2986 176.271 24.1565 176.375 24.0518C176.48 23.947 176.622 23.8882 176.77 23.8882H202.726C202.874 23.8882 203.016 23.947 203.121 24.0518C203.226 24.1565 203.285 24.2986 203.285 24.4468V28.3784C203.285 28.5265 203.226 28.6686 203.121 28.7734C203.016 28.8781 202.874 28.937 202.726 28.937ZM177.329 27.8198H202.168V25.0054H177.329V27.8198Z" fill="#690A3F"/>
<path d="M200.235 44.1669H179.262C179.113 44.1669 178.971 44.108 178.867 44.0033C178.762 43.8985 178.703 43.7564 178.703 43.6083V28.3784C178.703 28.2303 178.762 28.0882 178.867 27.9834C178.971 27.8787 179.113 27.8198 179.262 27.8198H200.235C200.384 27.8198 200.526 27.8787 200.63 27.9834C200.735 28.0882 200.794 28.2303 200.794 28.3784V43.6083C200.794 43.7564 200.735 43.8985 200.63 44.0033C200.526 44.108 200.384 44.1669 200.235 44.1669ZM179.82 43.0497H199.677V28.937H179.82V43.0497Z" fill="#690A3F"/>
<path d="M192.687 28.937H186.809C186.661 28.937 186.519 28.8781 186.414 28.7734C186.31 28.6686 186.251 28.5265 186.251 28.3784V24.4468C186.251 24.2986 186.31 24.1565 186.414 24.0518C186.519 23.947 186.661 23.8882 186.809 23.8882H192.687C192.836 23.8882 192.978 23.947 193.082 24.0518C193.187 24.1565 193.246 24.2986 193.246 24.4468V28.3784C193.246 28.5265 193.187 28.6686 193.082 28.7734C192.978 28.8781 192.836 28.937 192.687 28.937ZM187.368 27.8198H192.129V25.0054H187.368V27.8198Z" fill="#690A3F"/>
<path d="M191.852 44.1669H187.646C187.498 44.1669 187.356 44.108 187.251 44.0033C187.146 43.8985 187.087 43.7564 187.087 43.6083V28.763C187.087 28.6149 187.146 28.4728 187.251 28.368C187.356 28.2633 187.498 28.2044 187.646 28.2044H191.852C192.001 28.2044 192.143 28.2633 192.247 28.368C192.352 28.4728 192.411 28.6149 192.411 28.763V43.6083C192.411 43.7564 192.352 43.8985 192.247 44.0033C192.143 44.108 192.001 44.1669 191.852 44.1669ZM188.204 43.0497H191.294V29.3216H188.204V43.0497Z" fill="#690A3F"/>
<path d="M196.055 25.0055C195.94 25.0056 195.827 24.9699 195.733 24.9035C195.639 24.837 195.567 24.743 195.529 24.6343C195.49 24.5256 195.486 24.4076 195.517 24.2965C195.548 24.1854 195.613 24.0866 195.702 24.0138L197.242 22.7587L194.862 20.8203L189.878 24.8809C189.821 24.9292 189.755 24.9658 189.684 24.9884C189.613 25.011 189.539 25.0191 189.465 25.0124C189.39 25.0058 189.318 24.9843 189.253 24.9494C189.187 24.9144 189.129 24.8667 189.082 24.809C189.035 24.7513 189 24.6848 188.979 24.6133C188.958 24.5419 188.951 24.467 188.96 24.393C188.968 24.3191 188.991 24.2475 189.028 24.1826C189.064 24.1177 189.113 24.0607 189.172 24.0151L194.507 19.6666C194.607 19.5855 194.732 19.5411 194.86 19.5411C194.989 19.5411 195.113 19.5855 195.213 19.6666L198.479 22.3268C198.543 22.3792 198.595 22.4452 198.63 22.5202C198.666 22.5951 198.685 22.677 198.685 22.7599C198.685 22.8429 198.666 22.9248 198.63 22.9997C198.595 23.0746 198.543 23.1407 198.479 23.1931L196.407 24.8809C196.308 24.9618 196.183 25.0059 196.055 25.0055Z" fill="#690A3F"/>
<path d="M182.996 25.0055C182.867 25.0054 182.743 24.9609 182.643 24.8796L180.572 23.1918C180.508 23.1394 180.456 23.0734 180.42 22.9985C180.384 22.9235 180.366 22.8416 180.366 22.7587C180.366 22.6757 180.384 22.5938 180.42 22.5189C180.456 22.444 180.508 22.3779 180.572 22.3256L183.837 19.6654C183.937 19.5842 184.062 19.5399 184.19 19.5399C184.319 19.5399 184.443 19.5842 184.543 19.6654L189.878 24.0138C189.937 24.0595 189.986 24.1165 190.023 24.1814C190.059 24.2463 190.082 24.3178 190.091 24.3918C190.099 24.4657 190.093 24.5406 190.072 24.6121C190.051 24.6835 190.016 24.75 189.969 24.8077C189.922 24.8655 189.864 24.9132 189.798 24.9481C189.732 24.9831 189.66 25.0045 189.586 25.0112C189.512 25.0179 189.437 25.0097 189.366 24.9871C189.295 24.9645 189.229 24.928 189.173 24.8796L184.189 20.8191L181.808 22.7587L183.348 24.0138C183.438 24.0866 183.503 24.1854 183.534 24.2964C183.565 24.4075 183.561 24.5255 183.522 24.6341C183.483 24.7428 183.412 24.8368 183.318 24.9033C183.224 24.9698 183.111 25.0055 182.996 25.0055Z" fill="#690A3F"/>
</svg>
