<svg width="316" height="36" viewBox="0 0 316 36" fill="none" xmlns="http://www.w3.org/2000/svg">
<path d="M0 18C0 8.05887 8.05887 0 18 0H298C307.941 0 316 8.05887 316 18V18C316 27.9411 307.941 36 298 36H18C8.05887 36 0 27.9411 0 18V18Z" fill="#C8C8C8" fill-opacity="0.58"/>
<circle cx="29" cy="16" r="6" stroke="#292725"/>
<path d="M38 25L35 22" stroke="#292725" stroke-linecap="round"/>
<path d="M55.67 23.162C54.806 23.162 53.99 23.06 53.222 22.856C52.466 22.64 51.812 22.328 51.26 21.92C51.068 21.788 50.954 21.632 50.918 21.452C50.882 21.272 50.9 21.104 50.972 20.948C51.056 20.792 51.176 20.69 51.332 20.642C51.488 20.582 51.668 20.618 51.872 20.75C52.412 21.146 52.988 21.428 53.6 21.596C54.212 21.764 54.902 21.848 55.67 21.848C56.75 21.848 57.548 21.65 58.064 21.254C58.592 20.846 58.856 20.312 58.856 19.652C58.856 19.124 58.664 18.704 58.28 18.392C57.908 18.08 57.278 17.834 56.39 17.654L54.518 17.276C53.39 17.036 52.544 16.646 51.98 16.106C51.428 15.554 51.152 14.822 51.152 13.91C51.152 13.154 51.344 12.494 51.728 11.93C52.124 11.366 52.67 10.928 53.366 10.616C54.062 10.304 54.866 10.148 55.778 10.148C56.534 10.148 57.236 10.256 57.884 10.472C58.544 10.676 59.138 10.988 59.666 11.408C59.834 11.54 59.93 11.696 59.954 11.876C59.99 12.044 59.966 12.2 59.882 12.344C59.798 12.488 59.678 12.584 59.522 12.632C59.366 12.668 59.18 12.62 58.964 12.488C58.484 12.116 57.98 11.852 57.452 11.696C56.936 11.54 56.372 11.462 55.76 11.462C54.812 11.462 54.056 11.684 53.492 12.128C52.928 12.56 52.646 13.136 52.646 13.856C52.646 14.432 52.82 14.888 53.168 15.224C53.528 15.56 54.11 15.806 54.914 15.962L56.786 16.358C57.998 16.61 58.892 16.994 59.468 17.51C60.056 18.014 60.35 18.704 60.35 19.58C60.35 20.288 60.158 20.912 59.774 21.452C59.402 21.992 58.862 22.412 58.154 22.712C57.458 23.012 56.63 23.162 55.67 23.162ZM66.3842 23.162C65.0042 23.162 63.9122 22.76 63.1082 21.956C62.3042 21.14 61.9022 20.036 61.9022 18.644C61.9022 17.744 62.0822 16.952 62.4422 16.268C62.8022 15.572 63.2942 15.038 63.9182 14.666C64.5542 14.282 65.2862 14.09 66.1142 14.09C67.3022 14.09 68.2322 14.474 68.9042 15.242C69.5762 15.998 69.9122 17.042 69.9122 18.374C69.9122 18.746 69.7022 18.932 69.2822 18.932H63.3242C63.3722 19.928 63.6602 20.69 64.1882 21.218C64.7162 21.734 65.4482 21.992 66.3842 21.992C66.7802 21.992 67.1822 21.944 67.5902 21.848C67.9982 21.74 68.3942 21.554 68.7782 21.29C69.0542 21.11 69.2822 21.074 69.4622 21.182C69.6542 21.29 69.7502 21.458 69.7502 21.686C69.7622 21.902 69.6422 22.094 69.3902 22.262C68.9942 22.55 68.5202 22.772 67.9682 22.928C67.4282 23.084 66.9002 23.162 66.3842 23.162ZM66.1502 15.17C65.3222 15.17 64.6682 15.428 64.1882 15.944C63.7082 16.46 63.4262 17.138 63.3422 17.978H68.6522C68.6162 17.09 68.3822 16.4 67.9502 15.908C67.5302 15.416 66.9302 15.17 66.1502 15.17ZM74.7763 23.162C74.1763 23.162 73.6363 23.048 73.1563 22.82C72.6883 22.58 72.3163 22.256 72.0403 21.848C71.7643 21.44 71.6263 20.984 71.6263 20.48C71.6263 19.844 71.7883 19.34 72.1123 18.968C72.4483 18.596 72.9943 18.332 73.7503 18.176C74.5183 18.008 75.5623 17.924 76.8823 17.924H77.4583V17.366C77.4583 16.622 77.3023 16.088 76.9903 15.764C76.6903 15.428 76.2043 15.26 75.5323 15.26C75.1123 15.26 74.6863 15.314 74.2543 15.422C73.8343 15.53 73.3963 15.704 72.9403 15.944C72.7363 16.052 72.5623 16.076 72.4183 16.016C72.2863 15.944 72.1903 15.836 72.1303 15.692C72.0823 15.536 72.0823 15.38 72.1303 15.224C72.1903 15.056 72.3103 14.93 72.4903 14.846C73.0063 14.582 73.5223 14.39 74.0383 14.27C74.5663 14.15 75.0643 14.09 75.5323 14.09C76.6603 14.09 77.4943 14.366 78.0343 14.918C78.5863 15.47 78.8623 16.328 78.8623 17.492V22.37C78.8623 22.874 78.6403 23.126 78.1963 23.126C77.7283 23.126 77.4943 22.874 77.4943 22.37V21.488C77.2663 22.004 76.9123 22.412 76.4323 22.712C75.9643 23.012 75.4123 23.162 74.7763 23.162ZM75.0103 22.064C75.7303 22.064 76.3183 21.818 76.7743 21.326C77.2303 20.822 77.4583 20.186 77.4583 19.418V18.878H76.9003C75.9283 18.878 75.1603 18.926 74.5963 19.022C74.0443 19.106 73.6543 19.262 73.4263 19.49C73.2103 19.706 73.1023 20.006 73.1023 20.39C73.1023 20.882 73.2703 21.284 73.6063 21.596C73.9543 21.908 74.4223 22.064 75.0103 22.064ZM82.3052 23.126C81.8132 23.126 81.5672 22.874 81.5672 22.37V14.864C81.5672 14.372 81.8012 14.126 82.2692 14.126C82.7492 14.126 82.9892 14.372 82.9892 14.864V15.818C83.2292 15.266 83.6012 14.846 84.1052 14.558C84.6092 14.258 85.2092 14.096 85.9052 14.072C86.2892 14.036 86.4932 14.228 86.5172 14.648C86.5532 15.068 86.3372 15.302 85.8692 15.35L85.5812 15.386C84.7532 15.458 84.1232 15.722 83.6912 16.178C83.2592 16.622 83.0432 17.234 83.0432 18.014V22.37C83.0432 22.874 82.7972 23.126 82.3052 23.126ZM91.6209 23.162C90.7449 23.162 89.9889 22.976 89.3529 22.604C88.7169 22.22 88.2249 21.686 87.8769 21.002C87.5409 20.306 87.3729 19.496 87.3729 18.572C87.3729 17.18 87.7509 16.088 88.5069 15.296C89.2629 14.492 90.3009 14.09 91.6209 14.09C92.0529 14.09 92.5029 14.162 92.9709 14.306C93.4389 14.438 93.8649 14.66 94.2489 14.972C94.4529 15.116 94.5369 15.296 94.5009 15.512C94.4769 15.728 94.3749 15.89 94.1949 15.998C94.0269 16.106 93.8289 16.082 93.6009 15.926C93.2769 15.686 92.9529 15.518 92.6289 15.422C92.3169 15.326 92.0109 15.278 91.7109 15.278C90.7989 15.278 90.0969 15.566 89.6049 16.142C89.1129 16.706 88.8669 17.522 88.8669 18.59C88.8669 19.634 89.1129 20.462 89.6049 21.074C90.0969 21.674 90.7989 21.974 91.7109 21.974C92.0109 21.974 92.3169 21.926 92.6289 21.83C92.9529 21.734 93.2769 21.566 93.6009 21.326C93.8289 21.17 94.0269 21.152 94.1949 21.272C94.3629 21.38 94.4529 21.542 94.4649 21.758C94.4889 21.974 94.4049 22.148 94.2129 22.28C93.8289 22.592 93.4089 22.82 92.9529 22.964C92.4969 23.096 92.0529 23.162 91.6209 23.162ZM96.965 23.126C96.485 23.126 96.245 22.874 96.245 22.37V10.922C96.245 10.43 96.485 10.184 96.965 10.184C97.457 10.184 97.703 10.43 97.703 10.922V15.692C97.991 15.164 98.393 14.768 98.909 14.504C99.437 14.228 100.025 14.09 100.673 14.09C102.749 14.09 103.787 15.242 103.787 17.546V22.37C103.787 22.874 103.547 23.126 103.067 23.126C102.575 23.126 102.329 22.874 102.329 22.37V17.636C102.329 16.82 102.167 16.226 101.843 15.854C101.531 15.47 101.027 15.278 100.331 15.278C99.527 15.278 98.885 15.53 98.405 16.034C97.937 16.526 97.703 17.186 97.703 18.014V22.37C97.703 22.874 97.457 23.126 96.965 23.126Z" fill="#474A56"/>
</svg>
